<?xml version="1.0" standalone="no"?>
<!DOCTYPE svg PUBLIC "-//W3C//DTD SVG 20010904//EN"
 "http://www.w3.org/TR/2001/REC-SVG-20010904/DTD/svg10.dtd">
<svg version="1.0" xmlns="http://www.w3.org/2000/svg"
 width="423.000000pt" height="423.000000pt" viewBox="0 0 423.000000 423.000000"
 preserveAspectRatio="xMidYMid meet">
<metadata>
Created by potrace 1.11, written by Peter Selinger 2001-2013
</metadata>
<g transform="translate(0.000000,423.000000) scale(0.100000,-0.100000)"
fill="#000000" stroke="none">
<path d="M900 3406 c0 -11 -15 -16 -52 -18 -46 -3 -53 -6 -56 -25 -3 -19 -10
-23 -42 -23 -51 0 -70 -8 -70 -31 0 -19 -17 -26 -75 -31 -21 -2 -31 -9 -34
-23 -4 -24 -21 -37 -38 -30 -8 2 -13 -4 -13 -15 0 -21 -27 -40 -47 -33 -7 3
-17 -7 -23 -22 -6 -17 -16 -25 -24 -22 -8 3 -19 -5 -26 -19 -8 -13 -19 -24
-27 -24 -7 0 -19 -11 -25 -25 -6 -14 -19 -25 -28 -25 -11 0 -20 -11 -24 -30
-4 -20 -14 -34 -31 -40 -15 -6 -24 -13 -22 -17 10 -17 -13 -53 -33 -53 -15 0
-20 -7 -20 -29 0 -31 -22 -57 -40 -46 -6 4 -10 -6 -10 -25 0 -42 -16 -70 -40
-70 -17 0 -20 -7 -20 -49 0 -49 -18 -79 -40 -66 -6 4 -10 -12 -10 -44 0 -39
-4 -51 -15 -51 -13 0 -15 -51 -15 -400 0 -349 2 -400 15 -400 12 0 15 -13 15
-55 0 -47 3 -55 19 -55 23 0 31 -19 31 -70 0 -32 4 -39 23 -42 18 -2 24 -12
31 -50 7 -36 14 -48 30 -50 15 -2 22 -11 24 -35 2 -24 9 -33 25 -35 15 -2 24
-13 30 -38 5 -22 16 -39 30 -45 12 -6 23 -20 25 -32 2 -13 11 -23 25 -25 13
-2 23 -12 27 -28 4 -15 15 -26 30 -30 15 -4 26 -14 28 -27 2 -15 16 -25 50
-35 34 -11 48 -21 50 -37 3 -16 10 -21 32 -21 22 0 29 -5 32 -22 2 -18 13 -24
53 -33 40 -8 51 -15 53 -32 3 -19 10 -22 55 -25 44 -3 52 -6 55 -24 3 -19 12
-22 80 -27 42 -3 78 -11 80 -16 3 -8 119 -11 365 -11 302 1 365 3 381 15 12 9
42 15 73 15 41 0 51 3 47 14 -8 20 26 36 75 36 33 0 40 3 43 23 2 18 12 24 50
31 36 7 48 14 50 30 2 16 11 22 36 24 20 2 32 9 32 18 0 8 9 14 20 14 11 0 20
6 20 14 0 8 10 16 23 20 13 3 29 17 35 31 7 14 20 25 31 25 13 0 21 8 23 22 2
15 11 24 26 26 16 3 22 10 22 28 0 17 9 30 30 42 16 9 30 23 30 30 0 7 11 23
23 35 13 12 27 34 30 48 4 14 18 31 32 37 17 8 25 19 25 37 0 15 11 36 25 49
14 13 25 34 25 49 0 14 11 39 25 55 13 16 27 49 31 73 3 24 17 61 30 81 19 30
24 51 24 102 0 77 14 121 35 112 13 -5 15 19 15 169 0 184 7 225 39 225 17 0
20 8 23 48 2 37 8 49 25 57 14 6 23 20 25 39 2 23 9 32 28 36 15 4 26 15 30
30 4 16 14 26 27 28 14 2 23 12 25 25 2 17 11 23 36 25 17 2 32 7 32 13 0 5 7
9 15 9 9 0 18 7 21 15 4 10 20 15 50 15 38 0 46 4 56 25 l11 25 186 0 c184 0
186 0 196 -22 8 -19 19 -24 58 -26 26 -2 47 -8 47 -14 0 -16 32 -37 57 -38 37
0 53 -11 53 -36 0 -23 3 -24 75 -24 l74 0 9 33 c5 22 15 33 29 35 13 2 23 12
25 25 2 14 11 23 26 25 13 2 22 10 22 21 0 22 19 41 41 41 11 0 19 9 21 23 2
14 11 23 26 25 14 2 22 10 22 24 0 13 10 24 30 31 17 6 30 20 32 32 2 12 12
21 26 23 14 2 22 10 22 23 0 11 7 22 15 25 11 5 15 23 15 75 0 53 -4 71 -15
75 -8 4 -15 14 -15 24 0 12 -15 22 -47 32 -35 11 -49 21 -51 37 -3 16 -10 21
-32 21 -22 0 -29 5 -32 23 -2 18 -12 24 -55 31 -46 8 -53 12 -53 32 0 21 -5
23 -52 26 -46 3 -53 6 -56 26 -3 20 -9 22 -58 22 -41 0 -54 4 -54 15 0 13 -52
15 -405 15 -353 0 -405 -2 -405 -15 0 -11 -12 -15 -49 -15 -44 0 -49 -3 -55
-25 -5 -21 -12 -25 -46 -25 -22 0 -43 0 -47 1 -5 0 -10 -10 -13 -23 -5 -19
-15 -25 -58 -32 -45 -8 -52 -12 -52 -32 0 -20 -5 -24 -29 -24 -23 0 -30 -5
-33 -21 -2 -16 -16 -26 -50 -37 -34 -11 -48 -21 -52 -38 -5 -17 -13 -24 -31
-24 -20 0 -25 -5 -25 -25 0 -18 -7 -26 -25 -31 -14 -3 -25 -13 -25 -23 0 -22
-19 -41 -42 -41 -12 0 -18 -8 -18 -24 0 -37 -10 -56 -31 -56 -13 0 -19 -7 -19
-23 0 -27 -17 -47 -41 -47 -14 0 -19 -10 -21 -42 -2 -36 -7 -44 -25 -46 -19
-3 -23 -10 -23 -37 0 -48 -17 -88 -35 -81 -15 5 -22 -21 -27 -99 -3 -33 -7
-41 -25 -43 -22 -3 -23 -7 -23 -120 0 -103 -7 -159 -27 -212 -4 -12 -7 -11
-13 5 -5 12 -9 -39 -9 -126 -1 -153 -10 -189 -45 -176 -13 5 -16 -1 -16 -42 0
-48 -17 -70 -41 -55 -5 3 -9 -9 -9 -26 0 -26 -4 -31 -30 -36 -23 -5 -30 -12
-30 -30 0 -19 -5 -24 -24 -24 -18 0 -25 -6 -28 -22 -2 -16 -11 -24 -29 -26
-16 -2 -29 -11 -32 -21 -4 -18 -45 -31 -98 -31 -16 0 -29 -5 -29 -12 0 -7 -11
-20 -23 -28 -18 -12 -55 -14 -202 -12 -175 3 -181 3 -190 25 -8 17 -20 23 -57
25 -32 2 -48 8 -48 16 0 14 -23 25 -75 35 -21 4 -31 13 -33 28 -2 14 -11 23
-25 25 -16 2 -23 11 -25 31 -3 21 -9 27 -28 27 -20 0 -24 5 -24 30 0 23 -6 33
-24 39 -28 11 -36 29 -36 82 0 32 -3 39 -20 39 -28 0 -31 22 -28 230 3 182 3
185 25 188 19 3 22 10 25 54 2 39 8 54 23 62 28 15 35 27 35 59 0 25 8 31 37
28 6 -1 13 11 15 26 2 22 9 29 31 31 15 2 27 9 26 15 -3 27 2 37 20 37 37 0
81 22 81 40 0 16 9 19 53 22 45 3 52 6 55 26 3 21 7 22 102 22 76 0 102 4 114
16 14 13 16 58 16 340 l0 324 -220 0 c-185 0 -220 -2 -220 -14z"/>
<path d="M2661 1813 c-17 -14 -24 -34 -30 -81 -5 -39 -15 -73 -29 -92 -12 -16
-22 -39 -22 -50 0 -28 -26 -76 -45 -83 -9 -4 -15 -19 -15 -36 0 -19 -8 -36
-24 -49 -14 -10 -28 -31 -32 -46 -3 -15 -17 -34 -30 -43 -13 -8 -24 -24 -24
-34 0 -11 -11 -24 -25 -31 -23 -10 -25 -16 -25 -79 0 -62 1 -67 20 -62 16 4
23 -2 31 -26 8 -23 17 -31 35 -31 15 0 24 -6 24 -15 0 -8 7 -15 15 -15 7 0 18
-6 22 -14 4 -8 22 -16 38 -18 22 -2 31 -9 33 -25 2 -14 10 -23 21 -23 38 0 81
-22 81 -41 0 -16 7 -19 44 -19 44 0 82 -22 71 -41 -4 -5 18 -9 48 -9 36 0 59
-5 67 -15 11 -13 66 -15 385 -15 266 0 374 3 377 11 2 6 36 14 75 16 64 5 72
8 75 27 3 18 11 21 55 24 45 3 52 6 55 25 2 17 13 24 53 32 40 9 51 15 53 33
3 17 10 22 32 22 22 0 29 5 32 21 2 16 16 26 51 37 32 10 47 20 47 32 0 10 7
20 15 24 11 4 15 22 15 75 0 52 -4 70 -15 75 -8 3 -15 14 -15 25 0 13 -8 21
-22 23 -14 2 -24 11 -26 23 -2 12 -15 26 -32 32 -20 7 -30 18 -30 31 0 14 -8
22 -22 24 -15 2 -24 11 -26 26 -2 13 -10 22 -21 22 -22 0 -41 19 -41 41 0 11
-9 19 -22 21 -15 2 -24 11 -26 25 -2 13 -12 23 -25 25 -14 2 -24 13 -29 36
l-9 32 -74 0 c-72 0 -75 -1 -75 -24 0 -25 -16 -36 -53 -36 -25 -1 -57 -22 -57
-38 0 -6 -21 -12 -47 -14 -38 -2 -50 -8 -58 -25 -9 -22 -15 -22 -193 -25
l-184 -3 -20 28 c-13 18 -28 27 -47 27 -53 0 -94 13 -98 31 -3 10 -16 19 -32
21 -18 2 -27 10 -29 26 -3 16 -10 22 -28 22 -18 0 -24 5 -24 21 0 13 -10 23
-30 30 -25 9 -30 16 -30 45 0 27 -4 34 -19 34 -11 0 -23 9 -26 20 -3 11 -12
20 -20 20 -7 0 -20 2 -28 5 -7 3 -24 -2 -36 -12z"/>
</g>
</svg>
