<svg version="1" xmlns="http://www.w3.org/2000/svg" width="666.667" height="666.667" viewBox="0 0 500 500"><path d="M426.7 71.1c-2.1.5-5.1 1.5-6.6 2.4-3 1.5-24.6 23.9-28.7 29.7-1.2 1.8-4.9 5.9-8.2 9-3.2 3.1-9.8 10.3-14.8 15.9-4.9 5.6-12.9 14.6-17.9 19.8-4.9 5.3-11.7 13-15 17.1-3.3 4-11.8 13.5-18.8 21-7.1 7.6-13.6 14.8-14.4 16.1-.9 1.3-5.4 6.2-9.9 10.9-4.6 4.7-9.3 9.8-10.6 11.5-2.3 3-20.6 23.7-41.3 46.6-6.3 7-12.3 12.9-13.4 13.2-3.7.9-8.5-2.8-23.4-18.7-20-21.4-40.5-41.4-44.2-43.3-6.1-3.2-17.7-1.2-23.3 4-5.7 5.3-8.3 15-6.2 23.5 1.6 6.8 4.1 9.6 46.6 52.3 35.6 35.7 36.6 36.7 42.4 38.4 7.1 2.2 12.9 1.6 19.7-1.9 4.4-2.3 10-7.8 22.3-22.1 2.3-2.8 9.1-10.2 15-16.5 5.9-6.3 12.7-14 15.1-16.9 2.3-3 7.1-8.3 10.5-11.7 3.4-3.4 7.5-8.2 9.2-10.6 1.7-2.5 8.4-10.1 14.9-16.9 6.5-6.8 15-16.2 18.9-20.9 3.9-4.7 10.2-11.7 14-15.6 3.8-3.9 13.2-14.2 20.9-22.9 7.7-8.6 14.8-16.1 15.7-16.6 1-.5 3-3.1 4.4-5.7 1.5-2.6 6.4-8.6 10.8-13.3 4.5-4.7 12.6-13.6 18.1-19.8 5.5-6.1 12-13.3 14.4-15.8 6-6.4 8.1-11.4 8.1-19.3 0-15.8-10.9-26.1-24.3-22.9z"/><path d="M192.8 92.1c-4.8.5-11.3 1.8-14.5 2.9-7.8 2.8-14.8 4.6-20.5 5.4-2.6.4-6.8 1.8-9.5 3.2-2.6 1.4-8.4 3.8-12.8 5.5-4.4 1.6-9.8 4.2-12 5.8-2.2 1.6-6.8 4.3-10.1 6-4.9 2.4-10.2 7.3-27.1 24.4C71.9 160 64.2 168.6 61.6 173c-2.1 3.5-5.3 8.1-7.2 10.4-1.9 2.2-3.4 4.5-3.4 5.2 0 .7-2 5.4-4.5 10.6-2.5 5.1-4.5 9.9-4.5 10.6 0 .7-2.2 10.4-4.9 21.5-4.3 17.7-5 22-5.6 35.2-.9 19.1.7 36.4 4.7 51.5 1.7 6.3 3.5 14 4 17 2.2 12.9 3 15.9 5.6 19.6 1.5 2.1 4.1 6.8 5.7 10.4 1.6 3.6 4 7.9 5.2 9.6 1.3 1.7 2.8 4.6 3.5 6.5.6 1.9 3 5.6 5.2 8.3 9 10.7 28.9 30.4 35.7 35.1 3.9 2.8 9 6.7 11.3 8.7 2.7 2.3 7 4.7 11.4 6.2 4 1.3 8.8 3.8 10.6 5.4 2.4 2.1 5.3 3.4 9.3 4.1 3.2.6 9.6 2.3 14.3 3.7 4.7 1.4 11.4 3.4 15 4.4 4.2 1.2 14.4 2.4 29 3.5 21.5 1.5 23.5 1.5 45.6-.4 22.9-1.9 23.2-2 32.6-6 5.3-2.2 12.8-4.6 16.7-5.2 5.4-.9 8.3-2 11.4-4.4 5.4-4.1 7.4-5.1 12-5.9 2-.4 5.2-1.9 7-3.5 1.7-1.5 5.3-4.2 7.9-5.9 2.6-1.8 8.7-6.7 13.6-11 4.9-4.2 10.9-9.4 13.4-11.4 6.4-5.2 10.8-12.2 10.8-17.1 0-4.3-1.7-6.3-15.6-18.1-3.3-2.8-10-8.5-14.7-12.8-6.9-6-9.6-7.8-12.9-8.3-4.2-.7-4.3-.7-9.3 4.8-8.1 8.9-26.2 24.6-29.2 25.3-1.6.4-6.6 2.8-11.3 5.5-4.7 2.7-9.3 4.9-10.3 4.9-.9 0-5 1.3-9.1 3-9.5 3.7-24.4 5.4-45.1 5.1-14.5-.2-15.4-.3-26.5-4.1-6.3-2.2-13.5-4.2-15.9-4.6-2.7-.4-5.9-1.9-8.5-4.1-2.2-1.8-6.9-4.7-10.4-6.3-6-2.9-12-6.9-19.1-12.7-4-3.2-10.3-11.4-14.8-19-1.8-3-5-7.4-7-9.8-6.1-7-14.3-27.9-14.3-36.2 0-3-.5-10.6-1.1-16.7-1-9.5-1-12.5.5-20.7.9-5.3 1.6-12.4 1.6-15.8 0-6 1.7-11.9 4.4-15.1.7-.8 2.5-4.7 4.1-8.5 1.5-3.9 3.9-8.5 5.3-10.3 1.3-1.8 2.8-4.9 3.4-6.8 1.3-4.8 25.6-29.6 31.3-32 2.2-.9 5.1-2.4 6.5-3.4 1.4-.9 5.9-3.2 10-5 4.1-1.8 8.6-4 10-5 3-2.1 10-3.7 19.5-4.4 3.9-.4 10.4-1.5 14.5-2.6 9-2.4 18.9-2.6 25.6-.5 9.3 2.8 14.6 1.5 20.5-5.1 1.5-1.6 9.6-10.6 18.1-19.9 17.4-19.2 18.8-21 18.8-24.2 0-2.8-4.5-5.8-9.9-6.8-2-.3-7-1.7-11.1-3.1-11.4-3.6-28.3-5.4-50.3-5.3-10.6.1-23.1.5-27.9 1z"/></svg>