<svg xmlns="http://www.w3.org/2000/svg" width="3086" height="1000" viewBox="0 0 3086 1000"><defs><radialGradient id="b" cx="1246.546" cy="920.081" r=".925" gradientTransform="matrix(798.36387 0 0 -1000.5 -992733.62 921045.84)" gradientUnits="userSpaceOnUse" fx="1246.546" fy="920.081"><stop offset="0" stop-color="#f9be03"/><stop offset="1" stop-color="#cc7c19"/></radialGradient></defs><title>plex-logo-light</title><radialGradient id="a" cx="1244.304" cy="920.094" r=".925" gradientTransform="matrix(798.36387 0 0 -1000.5 -992733.62 921045.84)" gradientUnits="userSpaceOnUse" fx="1244.304" fy="920.094"><stop offset="0" stop-color="#f9be03"/><stop offset="1" stop-color="#cc7c19"/></radialGradient><path d="M.9 4.73h417.7l460.91 498.35-460.91 498.35H.9l460.91-498.35L.9 4.73" fill="url(#a)"/><rect width="3005.714" height="757.701" x="1144.078" y="2269.525" ry="0" fill="#fff"/><path d="M2217.885 1006.016h-179.623V-3.323h179.623v175.36h-113.49v221.612h105.599v175.353h-105.599v260.273h113.49v176.74m-402.986 0c30.578-408.117-31.264-694.523 0-1009.338l125.394 42.954c.132 76.565-42.122 359.584-51.341 775.327 62.778 150.896 63.299-285.73 123.15-207.613l-4.95 398.67h-192.253m-62.666-445.295c-20.939 57.54-50.709 86.3-89.314 86.3h-28.316v358.996h-66V471.407l90.267.363c55.268-2.089 58.157-111.853 58.157-149.884 0-35.306 0-148.126-49.13-149.887h-99.294V-3.325h99.425c37.754 0 66.46 26.35 86.12 79.052 19.657 52.701 29.487 131.286 29.487 235.763 0 108.63-10.469 191.702-31.402 249.228z" fill="#494949"/><path d="M3090.955 6.675h-417.7l-460.909 498.35 460.91 498.35h417.699l-460.908-498.35 460.908-498.35" fill="url(#b)"/><path d="M870.707 1006.016h179.623V-3.323H870.707v175.36h113.49v221.612h-105.6v175.353h105.598v260.273h-113.49v176.74m402.987 0c-30.578-408.117 31.264-694.523 0-1009.338l-125.394 42.954c-.132 76.565 42.122 359.584 51.34 775.327-62.777 150.896-63.298-285.73-123.148-207.613l4.95 398.67h192.252m62.666-445.295c20.939 57.54 50.708 86.3 89.314 86.3h28.316v358.996h66V471.407l-90.267.363c-55.269-2.089-58.157-111.853-58.157-149.884 0-35.306 0-148.126 49.13-149.887h99.294V-3.325h-99.426c-37.754 0-66.46 26.35-86.12 79.052-19.656 52.701-29.486 131.286-29.486 235.763 0 108.63 10.469 191.702 31.402 249.228z" fill="#494949"/><ellipse ry="82.688" rx="131.25" cy="314.063" cx="1543.75" fill="#f3b506" fill-opacity=".832"/></svg>