<?xml version="1.0" standalone="no"?>
<!DOCTYPE svg PUBLIC "-//W3C//DTD SVG 20010904//EN"
 "http://www.w3.org/TR/2001/REC-SVG-20010904/DTD/svg10.dtd">
<svg version="1.0" xmlns="http://www.w3.org/2000/svg"
 width="500.000000pt" height="500.000000pt" viewBox="0 0 500.000000 500.000000"
 preserveAspectRatio="xMidYMid meet">
<metadata>
Created by potrace 1.11, written by Peter Selinger 2001-2013
</metadata>
<g transform="translate(0.000000,500.000000) scale(0.100000,-0.100000)"
fill="#000000" stroke="none">
<path d="M3479 3573 c-78 -93 -145 -169 -148 -171 -3 -1 -38 21 -76 49 -122
89 -281 157 -457 196 -119 26 -438 26 -558 -1 -619 -135 -980 -645 -980 -1384
0 -365 80 -667 239 -900 22 -33 41 -64 41 -68 0 -3 -68 -87 -150 -185 -83 -98
-150 -181 -150 -186 0 -11 177 -155 187 -151 4 1 72 78 151 170 l142 167 83
-56 c200 -137 398 -199 663 -210 252 -10 443 26 630 117 355 172 587 503 670
955 26 140 26 527 0 665 -43 233 -118 425 -228 588 -17 24 -27 48 -25 55 3 7
71 88 151 181 81 94 145 173 144 176 -4 9 -175 160 -181 160 -3 0 -70 -75
-148 -167z m-754 -229 c39 -9 111 -35 160 -59 91 -44 210 -131 210 -153 0 -17
-1296 -1543 -1305 -1537 -18 11 -73 164 -95 263 -65 286 -52 651 31 902 72
213 214 402 377 499 167 99 406 132 622 85z m610 -621 c45 -155 58 -262 58
-468 0 -126 -6 -222 -16 -285 -63 -371 -236 -634 -498 -754 -110 -51 -211 -70
-359 -69 -145 1 -243 22 -357 78 -74 37 -216 141 -211 155 2 5 296 353 653
774 l650 765 27 -54 c15 -30 39 -93 53 -142z"/>
</g>
</svg>
