<?xml version="1.0" standalone="no"?>
<!DOCTYPE svg PUBLIC "-//W3C//DTD SVG 20010904//EN"
 "http://www.w3.org/TR/2001/REC-SVG-20010904/DTD/svg10.dtd">
<svg version="1.0" xmlns="http://www.w3.org/2000/svg"
 width="500.000000pt" height="500.000000pt" viewBox="0 0 500.000000 500.000000"
 preserveAspectRatio="xMidYMid meet">
<metadata>
Created by potrace 1.11, written by Peter Selinger 2001-2013
</metadata>
<g transform="translate(0.000000,500.000000) scale(0.100000,-0.100000)"
fill="#000000" stroke="none">
<path d="M4267 4289 c-21 -5 -51 -15 -66 -24 -30 -15 -246 -239 -287 -297 -12
-18 -49 -59 -82 -90 -32 -31 -98 -103 -148 -159 -49 -56 -129 -146 -179 -198
-49 -53 -117 -130 -150 -171 -33 -40 -118 -135 -188 -210 -71 -76 -136 -148
-144 -161 -9 -13 -54 -62 -99 -109 -46 -47 -93 -98 -106 -115 -23 -30 -206
-237 -413 -466 -63 -70 -123 -129 -134 -132 -37 -9 -85 28 -234 187 -200 214
-405 414 -442 433 -61 32 -177 12 -233 -40 -57 -53 -83 -150 -62 -235 16 -68
41 -96 466 -523 356 -357 366 -367 424 -384 71 -22 129 -16 197 19 44 23 100
78 223 221 23 28 91 102 150 165 59 63 127 140 151 169 23 30 71 83 105 117
34 34 75 82 92 106 17 25 84 101 149 169 65 68 150 162 189 209 39 47 102 117
140 156 38 39 132 142 209 229 77 86 148 161 157 166 10 5 30 31 44 57 15 26
64 86 108 133 45 47 126 136 181 198 55 61 120 133 144 158 60 64 81 114 81
193 0 158 -109 261 -243 229z"/>
<path d="M1928 4079 c-48 -5 -113 -18 -145 -29 -78 -28 -148 -46 -205 -54 -26
-4 -68 -18 -95 -32 -26 -14 -84 -38 -128 -55 -44 -16 -98 -42 -120 -58 -22
-16 -68 -43 -101 -60 -49 -24 -102 -73 -271 -244 -144 -147 -221 -233 -247
-277 -21 -35 -53 -81 -72 -104 -19 -22 -34 -45 -34 -52 0 -7 -20 -54 -45 -106
-25 -51 -45 -99 -45 -106 0 -7 -22 -104 -49 -215 -43 -177 -50 -220 -56 -352
-9 -191 7 -364 47 -515 17 -63 35 -140 40 -170 22 -129 30 -159 56 -196 15
-21 41 -68 57 -104 16 -36 40 -79 52 -96 13 -17 28 -46 35 -65 6 -19 30 -56
52 -83 90 -107 289 -304 357 -351 39 -28 90 -67 113 -87 27 -23 70 -47 114
-62 40 -13 88 -38 106 -54 24 -21 53 -34 93 -41 32 -6 96 -23 143 -37 47 -14
114 -34 150 -44 42 -12 144 -24 290 -35 215 -15 235 -15 456 4 229 19 232 20
326 60 53 22 128 46 167 52 54 9 83 20 114 44 54 41 74 51 120 59 20 4 52 19
70 35 17 15 53 42 79 59 26 18 87 67 136 110 49 42 109 94 134 114 64 52 108
122 108 171 0 43 -17 63 -156 181 -33 28 -100 85 -147 128 -69 60 -96 78 -129
83 -42 7 -43 7 -93 -48 -81 -89 -262 -246 -292 -253 -16 -4 -66 -28 -113 -55
-47 -27 -93 -49 -103 -49 -9 0 -50 -13 -91 -30 -95 -37 -244 -54 -451 -51
-145 2 -154 3 -265 41 -63 22 -135 42 -159 46 -27 4 -59 19 -85 41 -22 18 -69
47 -104 63 -60 29 -120 69 -191 127 -40 32 -103 114 -148 190 -18 30 -50 74
-70 98 -61 70 -143 279 -143 362 0 30 -5 106 -11 167 -10 95 -10 125 5 207 9
53 16 124 16 158 0 60 17 119 44 151 7 8 25 47 41 85 15 39 39 85 53 103 13
18 28 49 34 68 13 48 256 296 313 320 22 9 51 24 65 34 14 9 59 32 100 50 41
18 86 40 100 50 30 21 100 37 195 44 39 4 104 15 145 26 90 24 189 26 256 5
93 -28 146 -15 205 51 15 16 96 106 181 199 174 192 188 210 188 242 0 28 -45
58 -99 68 -20 3 -70 17 -111 31 -114 36 -283 54 -503 53 -106 -1 -231 -5 -279
-10z"/>
</g>
</svg>
